<svg width="352" height="24" viewBox="0 0 352 24" fill="none" xmlns="http://www.w3.org/2000/svg">
<path d="M0.860795 16.5V7.77273H4.13352C4.80398 7.77273 5.36648 7.89773 5.82102 8.14773C6.27841 8.39773 6.62358 8.74148 6.85653 9.17898C7.09233 9.61364 7.21023 10.108 7.21023 10.6619C7.21023 11.2216 7.09233 11.7187 6.85653 12.1534C6.62074 12.5881 6.27273 12.9304 5.8125 13.1804C5.35227 13.4276 4.78551 13.5511 4.11222 13.5511H1.94318V12.2514H3.89915C4.29119 12.2514 4.61222 12.1832 4.86222 12.0469C5.11222 11.9105 5.29688 11.723 5.41619 11.4844C5.53835 11.2457 5.59943 10.9716 5.59943 10.6619C5.59943 10.3523 5.53835 10.0795 5.41619 9.84375C5.29688 9.60795 5.1108 9.42472 4.85795 9.29403C4.60795 9.16051 4.28551 9.09375 3.89062 9.09375H2.44176V16.5H0.860795ZM11.3704 16.6278C10.7312 16.6278 10.1772 16.4872 9.70845 16.206C9.2397 15.9247 8.87607 15.5312 8.61754 15.0256C8.36186 14.5199 8.23402 13.929 8.23402 13.2528C8.23402 12.5767 8.36186 11.9844 8.61754 11.4759C8.87607 10.9673 9.2397 10.5724 9.70845 10.2912C10.1772 10.0099 10.7312 9.86932 11.3704 9.86932C12.0096 9.86932 12.5636 10.0099 13.0323 10.2912C13.5011 10.5724 13.8633 10.9673 14.119 11.4759C14.3775 11.9844 14.5067 12.5767 14.5067 13.2528C14.5067 13.929 14.3775 14.5199 14.119 15.0256C13.8633 15.5312 13.5011 15.9247 13.0323 16.206C12.5636 16.4872 12.0096 16.6278 11.3704 16.6278ZM11.3789 15.392C11.7255 15.392 12.0153 15.2969 12.2482 15.1065C12.4812 14.9134 12.6545 14.6548 12.7681 14.331C12.8846 14.0071 12.9428 13.6463 12.9428 13.2486C12.9428 12.848 12.8846 12.4858 12.7681 12.1619C12.6545 11.8352 12.4812 11.5753 12.2482 11.3821C12.0153 11.1889 11.7255 11.0923 11.3789 11.0923C11.0238 11.0923 10.7283 11.1889 10.4925 11.3821C10.2596 11.5753 10.0849 11.8352 9.96839 12.1619C9.85476 12.4858 9.79794 12.848 9.79794 13.2486C9.79794 13.6463 9.85476 14.0071 9.96839 14.331C10.0849 14.6548 10.2596 14.9134 10.4925 15.1065C10.7283 15.2969 11.0238 15.392 11.3789 15.392ZM17.1669 16.5L15.3175 9.95455H16.8899L18.0405 14.5568H18.1001L19.2763 9.95455H20.8317L22.0078 14.5312H22.0717L23.2053 9.95455H24.782L22.9283 16.5H21.3217L20.0945 12.0767H20.005L18.7777 16.5H17.1669ZM28.7567 16.6278C28.1005 16.6278 27.5337 16.4915 27.0565 16.2188C26.582 15.9432 26.217 15.554 25.9613 15.0511C25.7056 14.5455 25.5778 13.9503 25.5778 13.2656C25.5778 12.5923 25.7056 12.0014 25.9613 11.4929C26.2198 10.9815 26.5806 10.5838 27.0437 10.2997C27.5067 10.0128 28.0508 9.86932 28.6758 9.86932C29.0792 9.86932 29.4599 9.93466 29.8178 10.0653C30.1786 10.1932 30.4968 10.392 30.7724 10.6619C31.0508 10.9318 31.2695 11.2756 31.4286 11.6932C31.5877 12.108 31.6673 12.6023 31.6673 13.1761V13.6491H26.3022V12.6094H30.1886C30.1857 12.3139 30.1218 12.0511 29.9968 11.821C29.8718 11.5881 29.6971 11.4048 29.4727 11.2713C29.2511 11.1378 28.9925 11.071 28.6971 11.071C28.3817 11.071 28.1048 11.1477 27.8661 11.3011C27.6275 11.4517 27.4414 11.6506 27.3079 11.8977C27.1772 12.142 27.1104 12.4105 27.1076 12.7031V13.6108C27.1076 13.9915 27.1772 14.3182 27.3164 14.5909C27.4556 14.8608 27.6502 15.0682 27.9002 15.2131C28.1502 15.3551 28.4428 15.4261 28.7781 15.4261C29.0025 15.4261 29.2056 15.3949 29.3874 15.3324C29.5692 15.267 29.7269 15.1719 29.8604 15.0469C29.994 14.9219 30.0948 14.767 30.163 14.5824L31.6033 14.7443C31.5124 15.125 31.3391 15.4574 31.0835 15.7415C30.8306 16.0227 30.5067 16.2415 30.1119 16.3977C29.717 16.5511 29.2653 16.6278 28.7567 16.6278ZM32.9723 16.5V9.95455H34.468V11.0455H34.5362C34.6555 10.6676 34.8601 10.3764 35.1499 10.1719C35.4425 9.96449 35.7763 9.8608 36.1513 9.8608C36.2365 9.8608 36.3317 9.86506 36.4368 9.87358C36.5447 9.87926 36.6342 9.8892 36.7053 9.90341V11.3224C36.6399 11.2997 36.5362 11.2798 36.3942 11.2628C36.255 11.2429 36.12 11.233 35.9893 11.233C35.7081 11.233 35.4553 11.294 35.2308 11.4162C35.0092 11.5355 34.8345 11.7017 34.7067 11.9148C34.5788 12.1278 34.5149 12.3736 34.5149 12.652V16.5H32.9723ZM40.6278 16.6278C39.9716 16.6278 39.4048 16.4915 38.9276 16.2188C38.4531 15.9432 38.0881 15.554 37.8324 15.0511C37.5767 14.5455 37.4489 13.9503 37.4489 13.2656C37.4489 12.5923 37.5767 12.0014 37.8324 11.4929C38.0909 10.9815 38.4517 10.5838 38.9148 10.2997C39.3778 10.0128 39.9219 9.86932 40.5469 9.86932C40.9503 9.86932 41.331 9.93466 41.6889 10.0653C42.0497 10.1932 42.3679 10.392 42.6435 10.6619C42.9219 10.9318 43.1406 11.2756 43.2997 11.6932C43.4588 12.108 43.5384 12.6023 43.5384 13.1761V13.6491H38.1733V12.6094H42.0597C42.0568 12.3139 41.9929 12.0511 41.8679 11.821C41.7429 11.5881 41.5682 11.4048 41.3438 11.2713C41.1222 11.1378 40.8636 11.071 40.5682 11.071C40.2528 11.071 39.9759 11.1477 39.7372 11.3011C39.4986 11.4517 39.3125 11.6506 39.179 11.8977C39.0483 12.142 38.9815 12.4105 38.9787 12.7031V13.6108C38.9787 13.9915 39.0483 14.3182 39.1875 14.5909C39.3267 14.8608 39.5213 15.0682 39.7713 15.2131C40.0213 15.3551 40.3139 15.4261 40.6491 15.4261C40.8736 15.4261 41.0767 15.3949 41.2585 15.3324C41.4403 15.267 41.598 15.1719 41.7315 15.0469C41.8651 14.9219 41.9659 14.767 42.0341 14.5824L43.4744 14.7443C43.3835 15.125 43.2102 15.4574 42.9545 15.7415C42.7017 16.0227 42.3778 16.2415 41.983 16.3977C41.5881 16.5511 41.1364 16.6278 40.6278 16.6278ZM47.2724 16.6151C46.7582 16.6151 46.2979 16.483 45.8917 16.2188C45.4854 15.9545 45.1644 15.571 44.9286 15.0682C44.6928 14.5653 44.5749 13.9545 44.5749 13.2358C44.5749 12.5085 44.6942 11.8949 44.9329 11.3949C45.1744 10.892 45.4996 10.5128 45.9087 10.2571C46.3178 9.99858 46.7738 9.86932 47.2766 9.86932C47.6602 9.86932 47.9755 9.93466 48.2227 10.0653C48.4698 10.1932 48.6658 10.348 48.8107 10.5298C48.9556 10.7088 49.0678 10.8778 49.1474 11.0369H49.2113V7.77273H50.7582V16.5H49.2411V15.4688H49.1474C49.0678 15.6278 48.9528 15.7969 48.8022 15.9759C48.6516 16.152 48.4528 16.3026 48.2056 16.4276C47.9585 16.5526 47.6474 16.6151 47.2724 16.6151ZM47.7028 15.3494C48.0295 15.3494 48.3079 15.2614 48.538 15.0852C48.7681 14.9062 48.9428 14.6577 49.0621 14.3395C49.1815 14.0213 49.2411 13.6506 49.2411 13.2273C49.2411 12.804 49.1815 12.4361 49.0621 12.1236C48.9457 11.8111 48.7724 11.5682 48.5423 11.3949C48.315 11.2216 48.0352 11.1349 47.7028 11.1349C47.359 11.1349 47.0721 11.2244 46.842 11.4034C46.6119 11.5824 46.4386 11.8295 46.3221 12.1449C46.2056 12.4602 46.1474 12.821 46.1474 13.2273C46.1474 13.6364 46.2056 14.0014 46.3221 14.3224C46.4414 14.6406 46.6161 14.892 46.8462 15.0767C47.0792 15.2585 47.3647 15.3494 47.7028 15.3494ZM55.4467 16.5V7.77273H56.9893V11.0369H57.0533C57.1328 10.8778 57.245 10.7088 57.3899 10.5298C57.5348 10.348 57.7308 10.1932 57.978 10.0653C58.2251 9.93466 58.5405 9.86932 58.924 9.86932C59.4297 9.86932 59.8857 9.99858 60.2919 10.2571C60.701 10.5128 61.0249 10.892 61.2635 11.3949C61.505 11.8949 61.6257 12.5085 61.6257 13.2358C61.6257 13.9545 61.5078 14.5653 61.272 15.0682C61.0362 15.571 60.7152 15.9545 60.3089 16.2188C59.9027 16.483 59.4425 16.6151 58.9283 16.6151C58.5533 16.6151 58.2422 16.5526 57.995 16.4276C57.7479 16.3026 57.549 16.152 57.3984 15.9759C57.2507 15.7969 57.1357 15.6278 57.0533 15.4688H56.9638V16.5H55.4467ZM56.9595 13.2273C56.9595 13.6506 57.0192 14.0213 57.1385 14.3395C57.2607 14.6577 57.4354 14.9062 57.6626 15.0852C57.8928 15.2614 58.1712 15.3494 58.4979 15.3494C58.8388 15.3494 59.1243 15.2585 59.3544 15.0767C59.5845 14.892 59.7578 14.6406 59.8743 14.3224C59.9936 14.0014 60.0533 13.6364 60.0533 13.2273C60.0533 12.821 59.995 12.4602 59.8786 12.1449C59.7621 11.8295 59.5888 11.5824 59.3587 11.4034C59.1286 11.2244 58.8416 11.1349 58.4979 11.1349C58.1683 11.1349 57.8885 11.2216 57.6584 11.3949C57.4283 11.5682 57.2536 11.8111 57.1342 12.1236C57.0178 12.4361 56.9595 12.804 56.9595 13.2273ZM63.896 18.9545C63.6857 18.9545 63.4911 18.9375 63.3121 18.9034C63.136 18.8722 62.9954 18.8352 62.8903 18.7926L63.2482 17.5909C63.4727 17.6563 63.6729 17.6875 63.8491 17.6847C64.0252 17.6818 64.18 17.6264 64.3136 17.5185C64.4499 17.4134 64.565 17.2372 64.6587 16.9901L64.7908 16.6364L62.4173 9.95455H64.0536L65.5621 14.8977H65.6303L67.1431 9.95455H68.7837L66.163 17.2926C66.0408 17.6392 65.8789 17.9361 65.6772 18.1832C65.4755 18.4332 65.2283 18.6236 64.9357 18.7543C64.646 18.8878 64.2994 18.9545 63.896 18.9545Z" fill="white"/>
<g clip-path="url(#clip0_280_6220)">
<path fill-rule="evenodd" clip-rule="evenodd" d="M90.2727 24C87.8454 24 85.4726 23.2962 83.4544 21.9776C81.4361 20.659 79.8631 18.785 78.9342 16.5922C78.0053 14.3995 77.7623 11.9867 78.2358 9.65895C78.7094 7.33115 79.8782 5.19296 81.5946 3.51472C83.311 1.83649 85.4978 0.693605 87.8785 0.230582C90.2592 -0.232441 92.7267 0.00519955 94.9693 0.913448C97.2119 1.82171 99.1286 3.35977 100.477 5.33316C101.826 7.30655 102.545 9.62663 102.545 12C102.545 15.1826 101.252 18.2348 98.9508 20.4853C96.6493 22.7357 93.5277 24 90.2727 24ZM87.6378 19.9412C86.0315 19.9412 84.4613 19.4755 83.1257 18.6028C81.79 17.7303 80.7491 16.49 80.1344 15.039C79.5196 13.5879 79.3588 11.9912 79.6722 10.4507C79.9856 8.9103 80.7591 7.49531 81.8949 6.38472C83.0308 5.27412 84.4779 4.51779 86.0534 4.21138C87.6288 3.90496 89.2618 4.06222 90.7458 4.66328C92.2299 5.26433 93.4983 6.28217 94.3908 7.58813C95.2832 8.89402 95.7595 10.4293 95.7595 12C95.7595 14.1061 94.9038 16.126 93.3807 17.6152C91.8576 19.1045 89.7918 19.9412 87.6378 19.9412Z" fill="#1652F0"/>
<path d="M85.7603 11.9994C85.7603 13.1694 86.2357 14.2915 87.0818 15.1188C87.5008 15.5284 87.9981 15.8534 88.5455 16.075C89.0929 16.2967 89.6796 16.4109 90.2721 16.4109C90.8646 16.4109 91.4513 16.2967 91.9986 16.075C92.5461 15.8534 93.0434 15.5284 93.4624 15.1188C93.8814 14.7091 94.2136 14.2228 94.4404 13.6876C94.6671 13.1524 94.7839 12.5787 94.7839 11.9994C94.7839 11.4201 94.6671 10.8464 94.4404 10.3111C94.2136 9.77594 93.8814 9.28964 93.4624 8.87999C93.0434 8.47034 92.5461 8.14537 91.9986 7.92367C91.4513 7.70197 90.8646 7.58789 90.2721 7.58789C89.0755 7.58789 87.9279 8.05267 87.0818 8.87999C86.2357 9.70732 85.7603 10.8294 85.7603 11.9994Z" fill="url(#paint0_linear_280_6220)"/>
<path d="M114.818 17.7529H117.408V10.2078H117.442L121.539 17.7529H122.589L126.685 10.2078H126.719V17.7529H129.292V6.24609H126.313L122.064 14.268H122.03L117.815 6.24609H114.818V17.7529Z" fill="white"/>
<path d="M132.494 17.7529H141.433V15.5502H135.085V12.9529H140.84V10.8653H135.085V8.44887H141.45V6.24609H132.494V17.7529Z" fill="white"/>
<path d="M147.573 17.7529H150.164V8.46529H154.379V6.24609H143.358V8.46529H147.573V17.7529Z" fill="white"/>
<path d="M163.843 17.7529H166.654L161.303 6.24609H158.883L153.55 17.7529H156.344L157.122 15.9776H163.065L163.843 17.7529ZM158.087 13.7748L160.085 9.18859H160.119L162.117 13.7748H158.087Z" fill="white"/>
<path d="M173.436 18C176.382 18 178.721 16.2123 179.04 13.2986H176.554C176.351 14.3585 175.095 15.7972 173.436 15.7972C171.269 15.7972 169.796 14.252 169.796 12C169.796 9.74797 171.269 8.20275 173.436 8.20275C175.427 8.20275 176.351 9.42255 176.605 10.5617L179.04 10.5082C178.721 7.47946 176.297 6 173.436 6C169.813 6 167.206 8.49863 167.206 12C167.206 15.5014 169.813 18 173.436 18Z" fill="white"/>
<path d="M181.427 17.7529H190.365V15.5502H184.016V12.9529H189.772V10.8653H184.016V8.44887H190.382V6.24609H181.427V17.7529Z" fill="white"/>
<path d="M193.052 17.7529H201.804V15.5337H195.643V6.24609H193.052V17.7529Z" fill="white"/>
<path d="M204.248 17.7529H213V15.5337H206.838V6.24609H204.248V17.7529Z" fill="white"/>
</g>
<defs>
<linearGradient id="paint0_linear_280_6220" x1="94.7839" y1="11.9994" x2="85.7603" y2="11.9994" gradientUnits="userSpaceOnUse">
<stop stop-color="#1652F0" stop-opacity="0"/>
<stop offset="1" stop-color="#1652F0"/>
</linearGradient>
<clipPath id="clip0_280_6220">
<rect width="135" height="24" fill="white" transform="translate(78)"/>
</clipPath>
</defs>
</svg>
