<svg width="48" height="48" viewBox="0 0 48 48" fill="none" xmlns="http://www.w3.org/2000/svg">
<path d="M6.85332 20.4004V27.2536H0C0 23.467 3.06665 20.4004 6.85332 20.4004Z" fill="#7B61FF"/>
<path d="M6.85352 20.4004V27.2536H13.7069C13.7069 23.467 10.6402 20.4004 6.85352 20.4004Z" fill="#7B61FF"/>
<path d="M6.85332 27.2539H0V34.1073H6.85332V27.2539Z" fill="#7B61FF"/>
<path d="M13.7065 40.9607V34.1074H20.5599C20.5599 37.8941 17.4932 40.9607 13.7065 40.9607Z" fill="#7B61FF"/>
<path d="M13.7069 40.9607V34.1074H6.85352C6.85352 37.8941 9.9202 40.9607 13.7069 40.9607Z" fill="#7B61FF"/>
<path d="M13.7258 34.1016H20.5791V27.2482H13.7258V34.1016Z" fill="#7B61FF"/>
<path d="M20.5599 13.5469V20.4003H13.7065C13.7065 16.6136 16.7732 13.5469 20.5599 13.5469Z" fill="#7B61FF"/>
<path d="M20.5601 13.5469V20.4003H27.4134C27.4401 16.6136 24.3467 13.5469 20.5601 13.5469Z" fill="#7B61FF"/>
<path d="M20.5599 20.4004H13.7065V27.2536H20.5599V20.4004Z" fill="#7B61FF"/>
<path d="M27.4399 34.1073V27.2539H34.2933C34.2933 31.0406 31.2266 34.1073 27.4399 34.1073Z" fill="#7B61FF"/>
<path d="M27.4399 34.1073V27.2539H20.5866C20.5599 31.0406 23.6533 34.1073 27.4399 34.1073Z" fill="#7B61FF"/>
<path d="M27.4206 27.2412H34.2739V20.388H27.4206V27.2412Z" fill="#7B61FF"/>
<path d="M34.2933 6.66699V13.5202H27.4399C27.4399 9.76025 30.5066 6.66699 34.2933 6.66699Z" fill="#7B61FF"/>
<path d="M34.2935 6.66699V13.5202H41.1468C41.1468 9.76025 38.0801 6.66699 34.2935 6.66699Z" fill="#7B61FF"/>
<path d="M34.2933 13.5469H27.4399V20.4003H34.2933V13.5469Z" fill="#7B61FF"/>
<path d="M41.1465 27.2536V20.4004H47.9998C47.9998 24.1871 44.9331 27.2536 41.1465 27.2536Z" fill="#7B61FF"/>
<path d="M41.1468 27.2536V20.4004H34.2935C34.2935 24.1871 37.3601 27.2536 41.1468 27.2536Z" fill="#7B61FF"/>
<path d="M41.1428 20.3799H47.9961V13.5265H41.1428V20.3799Z" fill="#7B61FF"/>
</svg>
