<svg width="164" height="16" viewBox="0 0 164 16" fill="none" xmlns="http://www.w3.org/2000/svg">
<path d="M2.8555 6.5V9.3555H0C0 7.7777 1.2778 6.5 2.8555 6.5Z" fill="#7B61FF"/>
<path d="M2.85547 6.5V9.3555H5.71107C5.71107 7.7777 4.43327 6.5 2.85547 6.5Z" fill="#7B61FF"/>
<path d="M2.8555 9.3556H0V12.2112H2.8555V9.3556Z" fill="#7B61FF"/>
<path d="M5.71106 15.0667V12.2112H8.56666C8.56666 13.789 7.28886 15.0667 5.71106 15.0667Z" fill="#7B61FF"/>
<path d="M5.71107 15.0667V12.2112H2.85547C2.85547 13.789 4.13327 15.0667 5.71107 15.0667Z" fill="#7B61FF"/>
<path d="M5.71899 12.2091H8.57459V9.3535H5.71899V12.2091Z" fill="#7B61FF"/>
<path d="M8.56666 3.6444V6.5H5.71106C5.71106 4.9222 6.98886 3.6444 8.56666 3.6444Z" fill="#7B61FF"/>
<path d="M8.56665 3.6444V6.5H11.4221C11.4332 4.9222 10.1444 3.6444 8.56665 3.6444Z" fill="#7B61FF"/>
<path d="M8.56666 6.5H5.71106V9.3555H8.56666V6.5Z" fill="#7B61FF"/>
<path d="M11.4333 12.2112V9.3556H14.2889C14.2889 10.9334 13.0111 12.2112 11.4333 12.2112Z" fill="#7B61FF"/>
<path d="M11.4333 12.2112V9.3556H8.57783C8.56673 10.9334 9.85563 12.2112 11.4333 12.2112Z" fill="#7B61FF"/>
<path d="M11.4253 9.3503H14.2809V6.4948H11.4253V9.3503Z" fill="#7B61FF"/>
<path d="M14.2889 0.777802V3.6334H11.4333C11.4333 2.0667 12.7111 0.777802 14.2889 0.777802Z" fill="#7B61FF"/>
<path d="M14.2889 0.777802V3.6334H17.1444C17.1444 2.0667 15.8667 0.777802 14.2889 0.777802Z" fill="#7B61FF"/>
<path d="M14.2889 3.6444H11.4333V6.5H14.2889V3.6444Z" fill="#7B61FF"/>
<path d="M17.1445 9.3555V6.5H20C20 8.0778 18.7222 9.3555 17.1445 9.3555Z" fill="#7B61FF"/>
<path d="M17.1444 9.3555V6.5H14.2889C14.2889 8.0778 15.5667 9.3555 17.1444 9.3555Z" fill="#7B61FF"/>
<path d="M17.1429 6.4916H19.9984V3.636H17.1429V6.4916Z" fill="#7B61FF"/>
<path d="M39.6037 5.6719H41.125C41.0952 4.1974 39.8381 3.1534 37.9801 3.1534C36.1477 3.1534 34.7713 4.1847 34.7756 5.7273C34.7756 6.9801 35.6662 7.7003 37.1023 8.071L38.0952 8.3267C39.0369 8.5653 39.6591 8.8594 39.6634 9.5369C39.6591 10.2827 38.9517 10.7812 37.9205 10.7812C36.9318 10.7812 36.1648 10.3381 36.1009 9.4219H34.5455C34.6094 11.1562 35.9006 12.1321 37.9332 12.1321C40.0256 12.1321 41.2401 11.0881 41.2443 9.5497C41.2401 8.0369 39.9915 7.3466 38.679 7.0355L37.8608 6.831C37.1449 6.6605 36.3693 6.358 36.3778 5.6293C36.3821 4.973 36.9702 4.4915 37.9588 4.4915C38.9006 4.4915 39.5227 4.9304 39.6037 5.6719ZM44.8946 12.1151C46.0196 12.1151 46.5267 11.446 46.7696 10.9688H46.8633V12H48.3804V5.4545H46.8335V6.5369H46.7696C46.5352 6.0639 46.0537 5.3693 44.8988 5.3693C43.386 5.3693 42.1971 6.554 42.1971 8.7358C42.1971 10.892 43.3519 12.1151 44.8946 12.1151ZM45.325 10.8494C44.3065 10.8494 43.7696 9.9545 43.7696 8.7273C43.7696 7.5085 44.298 6.6349 45.325 6.6349C46.3179 6.6349 46.8633 7.4574 46.8633 8.7273C46.8633 9.9972 46.3093 10.8494 45.325 10.8494ZM49.9042 3.2727V10.3764C49.9042 11.5185 50.4965 12.0767 51.7451 12.0426C52.1371 12.0341 52.4013 11.9702 52.5803 11.9148L52.3246 10.7472C52.2437 10.7727 52.1542 10.794 51.9496 10.7983C51.5704 10.8068 51.4468 10.6151 51.4468 10.125V3.2727H49.9042ZM53.4053 12H54.9479V9.8011L55.5104 9.2003L57.5132 12H59.3584L56.6737 8.2798L59.2092 5.4545H57.4067L55.0544 8.0838H54.9479V3.2727H53.4053V12ZM63.042 3.2727V12H64.5591V5.9915H64.6401L67.052 11.9744H68.1855L70.5974 6.0043H70.6784V12H72.1955V3.2727H70.2608L67.6699 9.5966H67.5676L64.9767 3.2727H63.042ZM76.584 12.1278C78.5016 12.1278 79.7203 10.777 79.7203 8.7528C79.7203 6.7244 78.5016 5.3693 76.584 5.3693C74.6664 5.3693 73.4476 6.7244 73.4476 8.7528C73.4476 10.777 74.6664 12.1278 76.584 12.1278ZM76.5925 10.892C75.5314 10.892 75.0115 9.946 75.0115 8.7486C75.0115 7.5511 75.5314 6.5923 76.5925 6.5923C77.6365 6.5923 78.1564 7.5511 78.1564 8.7486C78.1564 9.946 77.6365 10.892 76.5925 10.892ZM85.0815 9.2472C85.0815 10.2443 84.3699 10.7386 83.6881 10.7386C82.9466 10.7386 82.4523 10.2145 82.4523 9.3835V5.4545H80.9096V9.6222C80.9096 11.1946 81.8045 12.0852 83.0915 12.0852C84.0716 12.0852 84.7619 11.5696 85.0602 10.8366H85.1284V12H86.624V5.4545H85.0815V9.2472ZM93.264 7.1847C93.051 6.0767 92.164 5.3693 90.63 5.3693C89.053 5.3693 87.98 6.1449 87.984 7.3551C87.98 8.3097 88.568 8.9403 89.825 9.2003L90.941 9.4347C91.542 9.5668 91.823 9.8097 91.823 10.1804C91.823 10.6278 91.338 10.9645 90.605 10.9645C89.897 10.9645 89.437 10.6577 89.305 10.0696L87.801 10.2145C87.992 11.4162 89.002 12.1278 90.609 12.1278C92.245 12.1278 93.4 11.2798 93.404 10.0398C93.4 9.1065 92.799 8.5355 91.563 8.267L90.447 8.0284C89.782 7.8793 89.518 7.6491 89.522 7.2699C89.518 6.8267 90.008 6.5199 90.652 6.5199C91.363 6.5199 91.738 6.9077 91.857 7.3381L93.264 7.1847ZM97.454 12.1278C98.98 12.1278 100.028 11.3821 100.301 10.2443L98.86 10.0824C98.652 10.6364 98.14 10.9261 97.475 10.9261C96.478 10.9261 95.818 10.2699 95.805 9.1491H100.365V8.6761C100.365 6.3793 98.984 5.3693 97.373 5.3693C95.498 5.3693 94.275 6.7457 94.275 8.7656C94.275 10.8196 95.481 12.1278 97.454 12.1278ZM95.809 8.1094C95.856 7.2741 96.474 6.571 97.394 6.571C98.281 6.571 98.877 7.2188 98.886 8.1094H95.809ZM111.945 6.2173C111.676 4.2784 110.185 3.1534 108.25 3.1534C105.97 3.1534 104.253 4.8153 104.253 7.6364C104.253 10.4531 105.949 12.1193 108.25 12.1193C110.325 12.1193 111.702 10.777 111.945 9.1108L110.351 9.1023C110.151 10.125 109.315 10.7003 108.271 10.7003C106.856 10.7003 105.842 9.6392 105.842 7.6364C105.842 5.6676 106.848 4.5724 108.276 4.5724C109.337 4.5724 110.168 5.1733 110.351 6.2173H111.945ZM116.059 12.1278C117.977 12.1278 119.196 10.777 119.196 8.7528C119.196 6.7244 117.977 5.3693 116.059 5.3693C114.142 5.3693 112.923 6.7244 112.923 8.7528C112.923 10.777 114.142 12.1278 116.059 12.1278ZM116.068 10.892C115.007 10.892 114.487 9.946 114.487 8.7486C114.487 7.5511 115.007 6.5923 116.068 6.5923C117.112 6.5923 117.632 7.5511 117.632 8.7486C117.632 9.946 117.112 10.892 116.068 10.892ZM120.385 12H121.928V8.152C121.928 7.321 122.554 6.733 123.402 6.733C123.662 6.733 123.986 6.7798 124.118 6.8224V5.4034C123.977 5.3778 123.734 5.3608 123.564 5.3608C122.814 5.3608 122.188 5.7869 121.949 6.5455H121.881V5.4545H120.385V12ZM127.182 12.1151C128.307 12.1151 128.814 11.446 129.057 10.9688H129.151V12H130.668V3.2727H129.121V6.5369H129.057C128.823 6.0639 128.341 5.3693 127.186 5.3693C125.674 5.3693 124.485 6.554 124.485 8.7358C124.485 10.892 125.64 12.1151 127.182 12.1151ZM127.613 10.8494C126.594 10.8494 126.057 9.9545 126.057 8.7273C126.057 7.5085 126.586 6.6349 127.613 6.6349C128.606 6.6349 129.151 7.4574 129.151 8.7273C129.151 9.9972 128.597 10.8494 127.613 10.8494ZM136.237 12L136.957 9.848H140.239L140.963 12H142.651L139.574 3.2727H137.622L134.55 12H136.237ZM137.384 8.5781L138.564 5.0625H138.632L139.813 8.5781H137.384ZM146.47 5.4545H145.179V3.8864H143.636V5.4545H142.708V6.6477H143.636V10.2869C143.628 11.5185 144.523 12.1236 145.682 12.0895C146.121 12.0767 146.423 11.9915 146.59 11.9361L146.33 10.7301C146.244 10.7514 146.07 10.7898 145.878 10.7898C145.49 10.7898 145.179 10.6534 145.179 10.0312V6.6477H146.47V5.4545ZM147.781 3.2727V10.3764C147.781 11.5185 148.373 12.0767 149.622 12.0426C150.014 12.0341 150.278 11.9702 150.457 11.9148L150.202 10.7472C150.121 10.7727 150.031 10.794 149.827 10.7983C149.447 10.8068 149.324 10.6151 149.324 10.125V3.2727H147.781ZM153.535 12.1151C154.66 12.1151 155.167 11.446 155.41 10.9688H155.504V12H157.021V5.4545H155.474V6.5369H155.41C155.176 6.0639 154.694 5.3693 153.54 5.3693C152.027 5.3693 150.838 6.554 150.838 8.7358C150.838 10.892 151.993 12.1151 153.535 12.1151ZM153.966 10.8494C152.947 10.8494 152.41 9.9545 152.41 8.7273C152.41 7.5085 152.939 6.6349 153.966 6.6349C154.959 6.6349 155.504 7.4574 155.504 8.7273C155.504 9.9972 154.95 10.8494 153.966 10.8494ZM163.718 7.1847C163.505 6.0767 162.619 5.3693 161.085 5.3693C159.508 5.3693 158.434 6.1449 158.438 7.3551C158.434 8.3097 159.022 8.9403 160.279 9.2003L161.396 9.4347C161.997 9.5668 162.278 9.8097 162.278 10.1804C162.278 10.6278 161.792 10.9645 161.059 10.9645C160.352 10.9645 159.892 10.6577 159.759 10.0696L158.255 10.2145C158.447 11.4162 159.457 12.1278 161.063 12.1278C162.7 12.1278 163.855 11.2798 163.859 10.0398C163.855 9.1065 163.254 8.5355 162.018 8.267L160.901 8.0284C160.237 7.8793 159.973 7.6491 159.977 7.2699C159.973 6.8267 160.463 6.5199 161.106 6.5199C161.818 6.5199 162.193 6.9077 162.312 7.3381L163.718 7.1847Z" fill="white"/>
</svg>
