<svg width="20" height="20" viewBox="0 0 20 20" fill="none" xmlns="http://www.w3.org/2000/svg">
<path fill-rule="evenodd" clip-rule="evenodd" d="M10 1.25C5.16751 1.25 1.25 5.16751 1.25 10C1.25 14.8325 5.16751 18.75 10 18.75C14.8325 18.75 18.75 14.8325 18.75 10C18.75 7.67936 17.8281 5.45376 16.1872 3.81282C14.5462 2.17187 12.3206 1.25 10 1.25ZM17.5 9.375H13.75C13.677 7.07318 13.0807 4.81822 12.0063 2.78125C15.0384 3.61066 17.2316 6.24296 17.5 9.375ZM10 17.5C9.86057 17.5094 9.72068 17.5094 9.58125 17.5C8.28643 15.4351 7.56782 13.0613 7.5 10.625H12.5C12.4378 13.0596 11.7257 15.4332 10.4375 17.5C10.2918 17.5102 10.1457 17.5102 10 17.5ZM7.5 9.375C7.56218 6.94042 8.27428 4.56676 9.5625 2.5C9.84079 2.46873 10.1217 2.46873 10.4 2.5C11.7014 4.563 12.4265 6.93691 12.5 9.375H7.5ZM7.975 2.78125C6.90706 4.81978 6.31716 7.07466 6.25 9.375H2.5C2.76845 6.24296 4.96162 3.61066 7.99375 2.78125H7.975ZM2.53125 10.625H6.28125C6.34647 12.9249 6.93423 15.1797 8 17.2188C4.9777 16.3805 2.79614 13.7502 2.53125 10.625ZM12.0063 17.2188C13.0807 15.1818 13.677 12.9268 13.75 10.625H17.5C17.2316 13.757 15.0384 16.3893 12.0063 17.2188Z" fill="white" fill-opacity="0.8"/>
</svg>
