<svg width="16" height="16" viewBox="0 0 16 16" fill="none" xmlns="http://www.w3.org/2000/svg">
<path fill-rule="evenodd" clip-rule="evenodd" d="M9.125 12.5H4.5V3.5H8.75C9.77313 3.50006 10.703 4.09458 11.1324 5.02323C11.5619 5.95187 11.4126 7.04541 10.75 7.825C11.6186 8.51966 11.9552 9.68633 11.59 10.7369C11.2248 11.7875 10.2372 12.4939 9.125 12.5ZM6 11H9.115C9.51692 11 9.88832 10.7856 10.0893 10.4375C10.2902 10.0894 10.2902 9.66058 10.0893 9.3125C9.88832 8.96442 9.51692 8.75 9.115 8.75H6V11ZM6 7.25H8.75C9.15192 7.25 9.52332 7.03558 9.72428 6.6875C9.92524 6.33942 9.92524 5.91058 9.72428 5.5625C9.52332 5.21442 9.15192 5 8.75 5H6V7.25Z" fill="white" fill-opacity="0.8"/>
</svg>
