<svg width="20" height="20" viewBox="0 0 20 20" fill="none" xmlns="http://www.w3.org/2000/svg">
<path fill-rule="evenodd" clip-rule="evenodd" d="M1.25 10C1.25 5.16751 5.16751 1.25 10 1.25C12.3206 1.25 14.5462 2.17187 16.1872 3.81282C17.8281 5.45376 18.75 7.67936 18.75 10C18.75 14.8325 14.8325 18.75 10 18.75C5.16751 18.75 1.25 14.8325 1.25 10ZM9.995 4.36891C8.26911 4.36891 6.87 5.76802 6.87 7.49391C6.87 9.2198 8.26911 10.6189 9.995 10.6189C11.7209 10.6189 13.12 9.2198 13.12 7.49391C13.12 5.76802 11.7209 4.36891 9.995 4.36891ZM9.995 9.36891C8.95947 9.36891 8.12 8.52944 8.12 7.49391C8.12 6.45837 8.95947 5.61891 9.995 5.61891C11.0305 5.61891 11.87 6.45837 11.87 7.49391C11.87 8.52944 11.0305 9.36891 9.995 9.36891ZM6.25 16.4875V15.2375C6.19289 14.1393 7.02782 13.1986 8.125 13.125H11.875C12.9747 13.1986 13.8107 14.1432 13.75 15.2437V16.4937C11.4323 17.8439 8.56771 17.8439 6.25 16.4937V16.4875ZM15 15.1938V15.5625C17.3178 13.4894 18.1159 10.2011 17.0063 7.29616C15.8967 4.39124 13.1096 2.47233 10 2.47233C6.89038 2.47233 4.10329 4.39124 2.99371 7.29616C1.88413 10.2011 2.68223 13.4894 5 15.5625V15.1938C4.96117 13.42 6.35208 11.9428 8.125 11.875H11.875C13.6464 11.9461 15.0355 13.4213 15 15.1938Z" fill="white" fill-opacity="0.8"/>
</svg>
