<svg width="17" height="16" viewBox="0 0 17 16" fill="none" xmlns="http://www.w3.org/2000/svg">
<path fill-rule="evenodd" clip-rule="evenodd" d="M1.5 8C1.5 11.9 4.6 15 8.5 15C12.4 15 15.5 11.9 15.5 8C15.5 4.1 12.4 1 8.5 1C4.6 1 1.5 4.1 1.5 8ZM2.5 8C2.5 4.7 5.2 2 8.5 2C11.8 2 14.5 4.7 14.5 8C14.5 11.3 11.8 14 8.5 14C5.2 14 2.5 11.3 2.5 8ZM9 11V6.5H7V7.5H8V11H6.5V12H10.5V11H9ZM7.7 4.3C7.7 3.8 8.1 3.5 8.5 3.5C8.9 3.5 9.3 3.7 9.3 4.2C9.3 4.7 8.9 5 8.5 5C8.1 5 7.7 4.8 7.7 4.3Z" fill="white" fill-opacity="0.8"/>
</svg>
