<svg width="16" height="16" viewBox="0 0 16 16" fill="none" xmlns="http://www.w3.org/2000/svg">
<path fill-rule="evenodd" clip-rule="evenodd" d="M14.6252 3.38041C14.0623 2.81555 13.2977 2.49805 12.5002 2.49805C11.7028 2.49805 10.9381 2.81555 10.3752 3.38041L11.0852 4.09041C11.5917 3.58399 12.3298 3.38621 13.0216 3.57157C13.7134 3.75694 14.2537 4.29728 14.4391 4.98907C14.6244 5.68086 14.4267 6.41899 13.9202 6.92541L9.92023 10.9254C9.4147 11.4318 8.67739 11.6301 7.98605 11.4455C7.29471 11.2609 6.75436 10.7215 6.56855 10.0305C6.38274 9.33949 6.5797 8.60184 7.08523 8.09541L7.79023 7.38541L7.08523 6.67541L6.37523 7.38541C5.81037 7.94832 5.49286 8.71296 5.49286 9.51041C5.49286 10.3079 5.81037 11.0725 6.37523 11.6354C6.94097 12.1939 7.70527 12.505 8.50023 12.5004C9.30081 12.5037 10.0695 12.1869 10.6352 11.6204L14.6352 7.62041C15.8023 6.44639 15.7978 4.54892 14.6252 3.38041ZM2.09523 12.4104C1.71814 12.0351 1.50615 11.525 1.50615 10.9929C1.50615 10.4609 1.71814 9.95075 2.09523 9.57541L6.09523 5.57541C6.47057 5.19833 6.98068 4.98633 7.51273 4.98633C8.04477 4.98633 8.55489 5.19833 8.93023 5.57541C9.30505 5.95383 9.51068 6.46789 9.50023 7.00041C9.50331 7.53447 9.29267 8.04757 8.91523 8.42541L7.85523 9.50041L8.56523 10.2104L9.62523 9.15041C10.8002 7.97543 10.8002 6.0704 9.62523 4.89541C8.45024 3.72043 6.54521 3.72043 5.37023 4.89541L1.37023 8.89541C0.80383 9.45852 0.485352 10.2242 0.485352 11.0229C0.485352 11.8216 0.80383 12.5873 1.37023 13.1504C1.93964 13.7047 2.70568 14.0103 3.50023 14.0004C4.30178 14.0012 5.07109 13.6848 5.64023 13.1204L4.93023 12.4104C4.55489 12.7875 4.04477 12.9995 3.51273 12.9995C2.98068 12.9995 2.47057 12.7875 2.09523 12.4104Z" fill="white" fill-opacity="0.8"/>
</svg>
