<svg width="40" height="40" viewBox="0 0 40 40" fill="none" xmlns="http://www.w3.org/2000/svg">
<path fill-rule="evenodd" clip-rule="evenodd" d="M20 11.25C15.1675 11.25 11.25 15.1675 11.25 20C11.25 24.8325 15.1675 28.75 20 28.75C24.8325 28.75 28.75 24.8325 28.75 20C28.75 17.6794 27.8281 15.4538 26.1872 13.8128C24.5462 12.1719 22.3206 11.25 20 11.25ZM27.5 19.375H23.75C23.677 17.0732 23.0807 14.8182 22.0063 12.7812C25.0384 13.6107 27.2316 16.243 27.5 19.375ZM20 27.5C19.8606 27.5094 19.7207 27.5094 19.5813 27.5C18.2864 25.4351 17.5678 23.0613 17.5 20.625H22.5C22.4378 23.0596 21.7257 25.4332 20.4375 27.5C20.2918 27.5102 20.1457 27.5102 20 27.5ZM17.5 19.375C17.5622 16.9404 18.2743 14.5668 19.5625 12.5C19.8408 12.4687 20.1217 12.4687 20.4 12.5C21.7014 14.563 22.4265 16.9369 22.5 19.375H17.5ZM17.975 12.7812C16.9071 14.8198 16.3172 17.0747 16.25 19.375H12.5C12.7685 16.243 14.9616 13.6107 17.9938 12.7812H17.975ZM12.5312 20.625H16.2812C16.3465 22.9249 16.9342 25.1797 18 27.2188C14.9777 26.3805 12.7961 23.7502 12.5312 20.625ZM22.0063 27.2188C23.0807 25.1818 23.677 22.9268 23.75 20.625H27.5C27.2316 23.757 25.0384 26.3893 22.0063 27.2188Z" fill="white" fill-opacity="0.8"/>
</svg>
