<svg width="20" height="20" viewBox="0 0 20 20" fill="none" xmlns="http://www.w3.org/2000/svg">
<path fill-rule="evenodd" clip-rule="evenodd" d="M16.25 13.75C15.8086 13.7522 15.3762 13.8754 15 14.1062L13.0688 12.1687C13.9897 10.8696 13.9897 9.13041 13.0688 7.83125L15 5.89375C15.3762 6.12462 15.8086 6.24784 16.25 6.25C17.6307 6.25 18.75 5.13071 18.75 3.75C18.75 2.36929 17.6307 1.25 16.25 1.25C14.8693 1.25 13.75 2.36929 13.75 3.75C13.7522 4.19141 13.8754 4.62377 14.1062 5L12.1687 6.93125C10.8696 6.01025 9.13041 6.01025 7.83125 6.93125L5.89375 5C6.12462 4.62377 6.24784 4.19141 6.25 3.75C6.25 2.36929 5.13071 1.25 3.75 1.25C2.36929 1.25 1.25 2.36929 1.25 3.75C1.25 5.13071 2.36929 6.25 3.75 6.25C4.19141 6.24784 4.62377 6.12462 5 5.89375L6.93125 7.83125C6.01025 9.13041 6.01025 10.8696 6.93125 12.1687L5 14.1062C4.62377 13.8754 4.19141 13.7522 3.75 13.75C2.36929 13.75 1.25 14.8693 1.25 16.25C1.25 17.6307 2.36929 18.75 3.75 18.75C5.13071 18.75 6.25 17.6307 6.25 16.25C6.24784 15.8086 6.12462 15.3762 5.89375 15L7.83125 13.0688C9.13041 13.9897 10.8696 13.9897 12.1687 13.0688L14.1062 15C13.8754 15.3762 13.7522 15.8086 13.75 16.25C13.75 17.6307 14.8693 18.75 16.25 18.75C17.6307 18.75 18.75 17.6307 18.75 16.25C18.75 14.8693 17.6307 13.75 16.25 13.75ZM10 12.5C8.61929 12.5 7.5 11.3807 7.5 10C7.5 8.61929 8.61929 7.5 10 7.5C11.3807 7.5 12.5 8.61929 12.5 10C12.5 10.663 12.2366 11.2989 11.7678 11.7678C11.2989 12.2366 10.663 12.5 10 12.5Z" fill="white" fill-opacity="0.8"/>
</svg>
