<svg width="20" height="20" viewBox="0 0 20 20" fill="none" xmlns="http://www.w3.org/2000/svg">
<path fill-rule="evenodd" clip-rule="evenodd" d="M18.75 17.8687L14.0312 13.125C16.3746 10.2976 16.0822 6.12774 13.3672 3.65505C10.6522 1.18236 6.47324 1.2799 3.87657 3.87657C1.2799 6.47324 1.18236 10.6522 3.65505 13.3672C6.12774 16.0822 10.2976 16.3746 13.125 14.0312L17.8687 18.75L18.75 17.8687ZM3.125 8.75C3.125 5.64339 5.64339 3.125 8.75 3.125C11.8566 3.125 14.375 5.64339 14.375 8.75C14.375 11.8566 11.8566 14.375 8.75 14.375C5.64339 14.375 3.125 11.8566 3.125 8.75Z" fill="white" fill-opacity="0.8"/>
</svg>
