<svg width="20" height="20" viewBox="0 0 20 20" fill="none" xmlns="http://www.w3.org/2000/svg">
<path fill-rule="evenodd" clip-rule="evenodd" d="M9.375 2.5H10.625V17.5H9.375V2.5ZM6.25 4.375V15.625H2.5V4.375H6.25ZM6.25 3.125H2.5C1.80964 3.125 1.25 3.68464 1.25 4.375V15.625C1.25 16.3154 1.80964 16.875 2.5 16.875H6.25C6.94036 16.875 7.5 16.3154 7.5 15.625V4.375C7.5 3.68464 6.94036 3.125 6.25 3.125ZM17.5 4.375V15.625H13.75V4.375H17.5ZM17.5 3.125H13.75C13.0596 3.125 12.5 3.68464 12.5 4.375V15.625C12.5 16.3154 13.0596 16.875 13.75 16.875H17.5C18.1904 16.875 18.75 16.3154 18.75 15.625V4.375C18.75 3.68464 18.1904 3.125 17.5 3.125Z" fill="white" fill-opacity="0.8"/>
</svg>
