<svg width="20" height="20" viewBox="0 0 20 20" fill="none" xmlns="http://www.w3.org/2000/svg">
<path fill-rule="evenodd" clip-rule="evenodd" d="M16.25 8.75H15V10H16.25C17.2851 10.001 18.124 10.8399 18.125 11.875V14.375H19.375V11.875C19.3729 10.15 17.975 8.75207 16.25 8.75ZM15 2.5C16.0355 2.5 16.875 3.33947 16.875 4.375C16.875 5.41053 16.0355 6.25 15 6.25C13.9645 6.25 13.125 5.41053 13.125 4.375C13.125 3.33947 13.9645 2.5 15 2.5ZM15 1.25C13.2741 1.25 11.875 2.64911 11.875 4.375C11.875 6.10089 13.2741 7.5 15 7.5C16.7259 7.5 18.125 6.10089 18.125 4.375C18.125 3.5462 17.7958 2.75134 17.2097 2.16529C16.6237 1.57924 15.8288 1.25 15 1.25ZM14.375 18.75H13.125V17.5C13.124 16.4649 12.2851 15.626 11.25 15.625H8.75C7.71489 15.626 6.87603 16.4649 6.875 17.5V18.75H5.625V17.5C5.62707 15.775 7.02497 14.3771 8.75 14.375H11.25C12.975 14.3771 14.3729 15.775 14.375 17.5V18.75ZM10 8.125C11.0355 8.125 11.875 8.96447 11.875 10C11.875 11.0355 11.0355 11.875 10 11.875C8.96447 11.875 8.125 11.0355 8.125 10C8.125 8.96447 8.96447 8.125 10 8.125ZM10 6.875C8.27411 6.875 6.875 8.27411 6.875 10C6.875 11.7259 8.27411 13.125 10 13.125C11.7259 13.125 13.125 11.7259 13.125 10C13.125 8.27411 11.7259 6.875 10 6.875ZM5 8.75H3.75C2.02497 8.75207 0.627066 10.15 0.625 11.875V14.375H1.875V11.875C1.87603 10.8399 2.71489 10.001 3.75 10H5V8.75ZM5 2.5C6.03553 2.5 6.875 3.33947 6.875 4.375C6.875 5.41053 6.03553 6.25 5 6.25C3.96447 6.25 3.125 5.41053 3.125 4.375C3.125 3.33947 3.96447 2.5 5 2.5ZM5 1.25C3.27411 1.25 1.875 2.64911 1.875 4.375C1.875 6.10089 3.27411 7.5 5 7.5C6.72589 7.5 8.125 6.10089 8.125 4.375C8.125 3.5462 7.79576 2.75134 7.20971 2.16529C6.62366 1.57924 5.8288 1.25 5 1.25Z" fill="white" fill-opacity="0.8"/>
</svg>
