<svg width="17" height="16" viewBox="0 0 17 16" fill="none" xmlns="http://www.w3.org/2000/svg">
<path fill-rule="evenodd" clip-rule="evenodd" d="M6.0001 9.00027L6.7051 9.70527L8.0001 8.41527V14.5003H9.0001V8.41527L10.2951 9.70527L11.0001 9.00027L8.5001 6.50027L6.0001 9.00027ZM12.2501 11.0003H12.0001V10.0003H12.2501C13.4927 10.05 14.5404 9.08291 14.5901 7.84027C14.6398 6.59763 13.6727 5.54998 12.4301 5.50027H12.0001L11.9501 5.09027C11.7207 3.34908 10.2363 2.04755 8.4801 2.04755C6.72386 2.04755 5.23956 3.34908 5.0101 5.09027L5.0001 5.50027H4.5701C3.32746 5.54998 2.3604 6.59763 2.4101 7.84027C2.45981 9.08291 3.50746 10.05 4.7501 10.0003H5.0001V11.0003H4.7501C3.08966 10.9898 1.70417 9.72927 1.53717 8.07721C1.37017 6.42515 2.47536 4.91289 4.1001 4.57027C4.54491 2.4957 6.37838 1.01367 8.5001 1.01367C10.6218 1.01367 12.4553 2.4957 12.9001 4.57027C14.5248 4.91289 15.63 6.42515 15.463 8.07721C15.296 9.72927 13.9105 10.9898 12.2501 11.0003Z" fill="white" fill-opacity="0.4"/>
</svg>
