<svg width="15" height="14" viewBox="0 0 15 14" fill="none" xmlns="http://www.w3.org/2000/svg">
<path fill-rule="evenodd" clip-rule="evenodd" d="M5.0001 8.00027L5.7051 8.70527L7.0001 7.41527V13.5003H8.0001V7.41527L9.2951 8.70527L10.0001 8.00027L7.5001 5.50027L5.0001 8.00027ZM11.2501 10.0003H11.0001V9.00027H11.2501C12.4927 9.04998 13.5404 8.08291 13.5901 6.84027C13.6398 5.59763 12.6727 4.54998 11.4301 4.50027H11.0001L10.9501 4.09027C10.7207 2.34908 9.23635 1.04755 7.4801 1.04755C5.72386 1.04755 4.23956 2.34908 4.0101 4.09027L4.0001 4.50027H3.5701C2.32746 4.54998 1.3604 5.59763 1.4101 6.84027C1.45981 8.08291 2.50746 9.04998 3.7501 9.00027H4.0001V10.0003H3.7501C2.08966 9.98976 0.704174 8.72927 0.537169 7.07721C0.370165 5.42515 1.47536 3.91289 3.1001 3.57027C3.54491 1.4957 5.37838 0.0136719 7.5001 0.0136719C9.62183 0.0136719 11.4553 1.4957 11.9001 3.57027C13.5248 3.91289 14.63 5.42515 14.463 7.07721C14.296 8.72927 12.9105 9.98976 11.2501 10.0003Z" fill="white" fill-opacity="0.4"/>
</svg>
