<svg width="80" height="80" viewBox="0 0 80 80" fill="none" xmlns="http://www.w3.org/2000/svg">
<path d="M22.8533 36.4004V43.2536H16C16 39.467 19.0667 36.4004 22.8533 36.4004Z" fill="#7B61FF"/>
<path d="M22.8533 36.4004V43.2536H29.7066C29.7066 39.467 26.6399 36.4004 22.8533 36.4004Z" fill="#7B61FF"/>
<path d="M22.8533 43.2539H16V50.1073H22.8533V43.2539Z" fill="#7B61FF"/>
<path d="M29.7067 56.9607V50.1074H36.56C36.56 53.8941 33.4934 56.9607 29.7067 56.9607Z" fill="#7B61FF"/>
<path d="M29.7066 56.9607V50.1074H22.8533C22.8533 53.8941 25.92 56.9607 29.7066 56.9607Z" fill="#7B61FF"/>
<path d="M29.7257 50.1016H36.579V43.2482H29.7257V50.1016Z" fill="#7B61FF"/>
<path d="M36.56 29.5469V36.4003H29.7067C29.7067 32.6136 32.7734 29.5469 36.56 29.5469Z" fill="#7B61FF"/>
<path d="M36.56 29.5469V36.4003H43.4133C43.44 32.6136 40.3466 29.5469 36.56 29.5469Z" fill="#7B61FF"/>
<path d="M36.56 36.4004H29.7067V43.2536H36.56V36.4004Z" fill="#7B61FF"/>
<path d="M43.4401 50.1073V43.2539H50.2934C50.2934 47.0406 47.2267 50.1073 43.4401 50.1073Z" fill="#7B61FF"/>
<path d="M43.44 50.1073V43.2539H36.5867C36.56 47.0406 39.6533 50.1073 43.44 50.1073Z" fill="#7B61FF"/>
<path d="M43.4208 43.2412H50.2741V36.388H43.4208V43.2412Z" fill="#7B61FF"/>
<path d="M50.2934 22.667V29.5202H43.4401C43.4401 25.7602 46.5067 22.667 50.2934 22.667Z" fill="#7B61FF"/>
<path d="M50.2933 22.667V29.5202H57.1467C57.1467 25.7602 54.08 22.667 50.2933 22.667Z" fill="#7B61FF"/>
<path d="M50.2934 29.5469H43.4401V36.4003H50.2934V29.5469Z" fill="#7B61FF"/>
<path d="M57.1467 43.2536V36.4004H64C64 40.1871 60.9334 43.2536 57.1467 43.2536Z" fill="#7B61FF"/>
<path d="M57.1467 43.2536V36.4004H50.2933C50.2933 40.1871 53.36 43.2536 57.1467 43.2536Z" fill="#7B61FF"/>
<path d="M57.1429 36.3799H63.9962V29.5265H57.1429V36.3799Z" fill="#7B61FF"/>
<rect x="0.5" y="0.5" width="79" height="79" rx="39.5" stroke="#3C3E40"/>
</svg>
