<svg width="20" height="20" viewBox="0 0 20 20" fill="none" xmlns="http://www.w3.org/2000/svg">
<path fill-rule="evenodd" clip-rule="evenodd" d="M1.25 10C1.25 5.16751 5.16751 1.25 10 1.25C12.3206 1.25 14.5462 2.17187 16.1872 3.81282C17.8281 5.45376 18.75 7.67936 18.75 10C18.75 14.8325 14.8325 18.75 10 18.75C5.16751 18.75 1.25 14.8325 1.25 10ZM10.935 14.6875C10.935 15.2053 10.5153 15.625 9.9975 15.625C9.47973 15.625 9.06 15.2053 9.06 14.6875C9.06 14.1697 9.47973 13.75 9.9975 13.75C10.5153 13.75 10.935 14.1697 10.935 14.6875ZM10.62 5.00001H9.68251C8.93608 4.99834 8.21974 5.29412 7.69193 5.82193C7.16413 6.34974 6.86835 7.06608 6.87001 7.81251V8.12501H8.12001V7.81251C8.12001 6.94956 8.81956 6.25001 9.68251 6.25001H10.62C11.483 6.25001 12.1825 6.94956 12.1825 7.81251C12.1825 8.67545 11.483 9.37501 10.62 9.37501H9.37001V12.1875H10.62V10.625C12.1733 10.625 13.4325 9.36581 13.4325 7.81251C13.4325 6.25921 12.1733 5.00001 10.62 5.00001ZM2.5 10C2.5 14.1421 5.85786 17.5 10 17.5C14.1421 17.5 17.5 14.1421 17.5 10C17.5 5.85786 14.1421 2.5 10 2.5C5.85786 2.5 2.5 5.85786 2.5 10Z" fill="white" fill-opacity="0.8"/>
</svg>
