<svg xmlns="http://www.w3.org/2000/svg" width="12" height="12" viewBox="0 0 12 12" fill="none">
  <path fill-rule="evenodd" clip-rule="evenodd" d="M11.25 2.62493H9.3375C9.16005 1.75106 8.39171 1.12305 7.5 1.12305C6.60829 1.12305 5.83995 1.75106 5.6625 2.62493H0.75V3.37493H5.6625C5.83995 4.2488 6.60829 4.87681 7.5 4.87681C8.39171 4.87681 9.16005 4.2488 9.3375 3.37493H11.25V2.62493ZM7.5 4.12493C6.87868 4.12493 6.375 3.62125 6.375 2.99993C6.375 2.37861 6.87868 1.87493 7.5 1.87493C8.12132 1.87493 8.625 2.37861 8.625 2.99993C8.625 3.62125 8.12132 4.12493 7.5 4.12493ZM0.75 9.37493H2.6625C2.83995 10.2488 3.60829 10.8768 4.5 10.8768C5.39171 10.8768 6.16005 10.2488 6.3375 9.37493H11.25V8.62493H6.3375C6.16005 7.75106 5.39171 7.12305 4.5 7.12305C3.60829 7.12305 2.83995 7.75106 2.6625 8.62493H0.75V9.37493ZM3.375 8.99993C3.375 8.37861 3.87868 7.87493 4.5 7.87493C5.12132 7.87493 5.625 8.37861 5.625 8.99993C5.625 9.62125 5.12132 10.1249 4.5 10.1249C3.87868 10.1249 3.375 9.62125 3.375 8.99993Z" fill="white" fill-opacity="0.8"/>
</svg>