<svg width="20" height="20" viewBox="0 0 20 20" fill="none" xmlns="http://www.w3.org/2000/svg">
<path d="M9.99999 15.0003C9.89652 15.0003 9.79468 14.9745 9.70367 14.9253L1.57867 10.5503L2.1713 9.45032L9.99999 13.6655L17.8287 9.45032L18.4213 10.5508L10.2963 14.9258C10.2052 14.9748 10.1034 15.0004 9.99999 15.0003Z" fill="white" fill-opacity="0.8"/>
<path d="M9.99999 18.7503C9.89652 18.7503 9.79468 18.7245 9.70367 18.6753L1.57867 14.3003L2.1713 13.2003L9.99999 17.4155L17.8287 13.2003L18.4213 14.3008L10.2963 18.6758C10.2052 18.7248 10.1034 18.7504 9.99999 18.7503Z" fill="white" fill-opacity="0.8"/>
<path d="M9.99998 11.2498C9.89652 11.2498 9.79468 11.224 9.70367 11.1748L1.57867 6.79981C1.47934 6.74629 1.39635 6.66688 1.33851 6.57001C1.28066 6.47314 1.25012 6.36242 1.25012 6.24959C1.25012 6.13676 1.28066 6.02604 1.33851 5.92917C1.39635 5.83229 1.47934 5.75289 1.57867 5.69937L9.70367 1.32437C9.79471 1.27524 9.89653 1.24951 9.99998 1.24951C10.1034 1.24951 10.2053 1.27524 10.2963 1.32437L18.4213 5.69937C18.5206 5.75289 18.6036 5.83229 18.6615 5.92917C18.7193 6.02604 18.7498 6.13676 18.7498 6.24959C18.7498 6.36242 18.7193 6.47314 18.6615 6.57001C18.6036 6.66688 18.5206 6.74629 18.4213 6.79981L10.2963 11.1748C10.2053 11.224 10.1034 11.2498 9.99998 11.2498ZM3.19336 6.24981L9.99998 9.915L16.8066 6.24981L9.99998 2.58468L3.19336 6.24981Z" fill="white" fill-opacity="0.8"/>
</svg>
