<svg width="20" height="20" viewBox="0 0 20 20" fill="none" xmlns="http://www.w3.org/2000/svg">
<path fill-rule="evenodd" clip-rule="evenodd" d="M2.5 3.12012H17.5C18.1901 3.12081 18.7493 3.68005 18.75 4.37012V15.6201C18.749 16.31 18.1899 16.8691 17.5 16.8701H2.5C1.80993 16.8694 1.25069 16.3102 1.25 15.6201V4.37012C1.25069 3.68005 1.80993 3.12081 2.5 3.12012ZM9.375 4.37012H2.5V15.6201H9.375V4.37012ZM10.625 15.6201V4.37012H17.5L17.5012 15.6201H10.625ZM16.25 6.25012H11.875V7.50012H16.25V6.25012ZM11.875 9.37512H16.25V10.6251H11.875V9.37512ZM16.25 12.5001H11.875V13.7501H16.25V12.5001Z" fill="white" fill-opacity="0.8"/>
</svg>
