<svg width="20" height="20" viewBox="0 0 20 20" fill="none" xmlns="http://www.w3.org/2000/svg">
<path fill-rule="evenodd" clip-rule="evenodd" d="M14.3751 12.5001C13.4275 12.5048 12.5332 12.9393 11.9438 13.6813L7.37505 10.8251C7.54156 10.2877 7.54156 9.71246 7.37505 9.17506L11.9438 6.31881C12.9013 7.5044 14.5743 7.82647 15.9035 7.08107C17.2327 6.33568 17.8304 4.74022 17.3181 3.30495C16.8059 1.86969 15.3331 1.01323 13.8323 1.27789C12.3315 1.54256 11.2405 2.85115 11.2501 4.37506C11.253 4.65455 11.2951 4.93224 11.3751 5.20006L6.8063 8.05631C5.97959 7.01558 4.58502 6.61165 3.33006 7.04944C2.0751 7.48723 1.23438 8.67093 1.23438 10.0001C1.23437 11.3292 2.0751 12.5129 3.33006 12.9507C4.58502 13.3885 5.97959 12.9845 6.8063 11.9438L11.3751 14.8001C11.2951 15.0679 11.253 15.3456 11.2501 15.6251C11.2501 17.3509 12.6492 18.7501 14.3751 18.7501C16.1009 18.7501 17.5001 17.3509 17.5001 15.6251C17.5001 13.8992 16.1009 12.5001 14.3751 12.5001ZM14.3751 2.50006C15.4106 2.50006 16.2501 3.33952 16.2501 4.37506C16.2501 5.41059 15.4106 6.25006 14.3751 6.25006C13.3395 6.25006 12.5001 5.41059 12.5001 4.37506C12.5001 3.33952 13.3395 2.50006 14.3751 2.50006ZM4.37505 11.8751C3.33952 11.8751 2.50005 11.0356 2.50005 10.0001C2.50005 8.96452 3.33952 8.12506 4.37505 8.12506C5.41059 8.12506 6.25005 8.96452 6.25005 10.0001C6.25005 11.0356 5.41059 11.8751 4.37505 11.8751ZM14.3751 17.5001C13.3395 17.5001 12.5001 16.6606 12.5001 15.6251C12.5001 14.5895 13.3395 13.7501 14.3751 13.7501C15.4106 13.7501 16.2501 14.5895 16.2501 15.6251C16.2501 16.6606 15.4106 17.5001 14.3751 17.5001Z" fill="white"/>
</svg>
