<svg width="16" height="16" viewBox="0 0 16 16" fill="none" xmlns="http://www.w3.org/2000/svg">
<path d="M10 3V13C10 13.2652 10.1054 13.5196 10.2929 13.7071C10.4804 13.8946 10.7348 14 11 14H13C13.2652 14 13.5196 13.8946 13.7071 13.7071C13.8946 13.5196 14 13.2652 14 13V3C14 2.73478 13.8946 2.48043 13.7071 2.29289C13.5196 2.10536 13.2652 2 13 2H11C10.7348 2 10.4804 2.10536 10.2929 2.29289C10.1054 2.48043 10 2.73478 10 3ZM13 3V13H11V3H13Z" fill="white" fill-opacity="0.8"/>
<path d="M3.914 7.5L5.207 6.207L4.5 5.5L2 8L4.5 10.5L5.207 9.793L3.914 8.5H7V14H8V2H7L7 7.5H3.914Z" fill="white" fill-opacity="0.8"/>
</svg>
