<svg width="183" height="48" viewBox="0 0 183 48" fill="none" xmlns="http://www.w3.org/2000/svg">
<path d="M16.8555 22.5V25.3555H14C14 23.7777 15.2778 22.5 16.8555 22.5Z" fill="#7B61FF"/>
<path d="M16.8555 22.5V25.3555H19.7111C19.7111 23.7777 18.4333 22.5 16.8555 22.5Z" fill="#7B61FF"/>
<path d="M16.8555 25.3555H14V28.211H16.8555V25.3555Z" fill="#7B61FF"/>
<path d="M19.7111 31.0667V28.2112H22.5667C22.5667 29.789 21.2889 31.0667 19.7111 31.0667Z" fill="#7B61FF"/>
<path d="M19.7111 31.0667V28.2112H16.8555C16.8555 29.789 18.1333 31.0667 19.7111 31.0667Z" fill="#7B61FF"/>
<path d="M19.719 28.209H22.5746V25.3534H19.719V28.209Z" fill="#7B61FF"/>
<path d="M22.5667 19.6445V22.5001H19.7111C19.7111 20.9223 20.9889 19.6445 22.5667 19.6445Z" fill="#7B61FF"/>
<path d="M22.5667 19.6445V22.5001H25.4222C25.4333 20.9223 24.1444 19.6445 22.5667 19.6445Z" fill="#7B61FF"/>
<path d="M22.5667 22.5H19.7111V25.3555H22.5667V22.5Z" fill="#7B61FF"/>
<path d="M25.4333 28.211V25.3555H28.2889C28.2889 26.9332 27.0111 28.211 25.4333 28.211Z" fill="#7B61FF"/>
<path d="M25.4333 28.211V25.3555H22.5778C22.5667 26.9332 23.8556 28.211 25.4333 28.211Z" fill="#7B61FF"/>
<path d="M25.4253 25.3503H28.2809V22.4948H25.4253V25.3503Z" fill="#7B61FF"/>
<path d="M28.2889 16.7778V19.6334H25.4333C25.4333 18.0667 26.7111 16.7778 28.2889 16.7778Z" fill="#7B61FF"/>
<path d="M28.2889 16.7778V19.6334H31.1444C31.1444 18.0667 29.8667 16.7778 28.2889 16.7778Z" fill="#7B61FF"/>
<path d="M28.2889 19.6445H25.4333V22.5001H28.2889V19.6445Z" fill="#7B61FF"/>
<path d="M31.1445 25.3555V22.5H34C34 24.0778 32.7222 25.3555 31.1445 25.3555Z" fill="#7B61FF"/>
<path d="M31.1444 25.3555V22.5H28.2889C28.2889 24.0778 29.5667 25.3555 31.1444 25.3555Z" fill="#7B61FF"/>
<path d="M31.1429 22.4915H33.9984V19.6359H31.1429V22.4915Z" fill="#7B61FF"/>
<path d="M53.6037 21.6719H55.125C55.0952 20.1974 53.8381 19.1534 51.9801 19.1534C50.1477 19.1534 48.7713 20.1847 48.7756 21.7273C48.7756 22.9801 49.6662 23.7003 51.1023 24.071L52.0952 24.3267C53.0369 24.5653 53.6591 24.8594 53.6634 25.5369C53.6591 26.2827 52.9517 26.7812 51.9205 26.7812C50.9318 26.7812 50.1648 26.3381 50.1009 25.4219H48.5455C48.6094 27.1562 49.9006 28.1321 51.9332 28.1321C54.0256 28.1321 55.2401 27.0881 55.2443 25.5497C55.2401 24.0369 53.9915 23.3466 52.679 23.0355L51.8608 22.831C51.1449 22.6605 50.3693 22.358 50.3778 21.6293C50.3821 20.973 50.9702 20.4915 51.9588 20.4915C52.9006 20.4915 53.5227 20.9304 53.6037 21.6719ZM58.8946 28.1151C60.0196 28.1151 60.5267 27.446 60.7696 26.9688H60.8633V28H62.3804V21.4545H60.8335V22.5369H60.7696C60.5352 22.0639 60.0537 21.3693 58.8988 21.3693C57.386 21.3693 56.1971 22.554 56.1971 24.7358C56.1971 26.892 57.3519 28.1151 58.8946 28.1151ZM59.325 26.8494C58.3065 26.8494 57.7696 25.9545 57.7696 24.7273C57.7696 23.5085 58.298 22.6349 59.325 22.6349C60.3179 22.6349 60.8633 23.4574 60.8633 24.7273C60.8633 25.9972 60.3093 26.8494 59.325 26.8494ZM63.9042 19.2727V26.3764C63.9042 27.5185 64.4965 28.0767 65.7451 28.0426C66.1371 28.0341 66.4013 27.9702 66.5803 27.9148L66.3246 26.7472C66.2437 26.7727 66.1542 26.794 65.9496 26.7983C65.5704 26.8068 65.4468 26.6151 65.4468 26.125V19.2727H63.9042ZM67.4053 28H68.9479V25.8011L69.5104 25.2003L71.5132 28H73.3584L70.6737 24.2798L73.2092 21.4545H71.4067L69.0544 24.0838H68.9479V19.2727H67.4053V28ZM77.042 19.2727V28H78.5591V21.9915H78.6401L81.052 27.9744H82.1855L84.5974 22.0043H84.6784V28H86.1955V19.2727H84.2608L81.6699 25.5966H81.5676L78.9767 19.2727H77.042ZM90.584 28.1278C92.5016 28.1278 93.7203 26.777 93.7203 24.7528C93.7203 22.7244 92.5016 21.3693 90.584 21.3693C88.6664 21.3693 87.4476 22.7244 87.4476 24.7528C87.4476 26.777 88.6664 28.1278 90.584 28.1278ZM90.5925 26.892C89.5314 26.892 89.0115 25.946 89.0115 24.7486C89.0115 23.5511 89.5314 22.5923 90.5925 22.5923C91.6365 22.5923 92.1564 23.5511 92.1564 24.7486C92.1564 25.946 91.6365 26.892 90.5925 26.892ZM99.0815 25.2472C99.0815 26.2443 98.3699 26.7386 97.6881 26.7386C96.9466 26.7386 96.4523 26.2145 96.4523 25.3835V21.4545H94.9096V25.6222C94.9096 27.1946 95.8045 28.0852 97.0915 28.0852C98.0716 28.0852 98.7619 27.5696 99.0602 26.8366H99.1284V28H100.624V21.4545H99.0815V25.2472ZM107.264 23.1847C107.051 22.0767 106.164 21.3693 104.63 21.3693C103.053 21.3693 101.98 22.1449 101.984 23.3551C101.98 24.3097 102.568 24.9403 103.825 25.2003L104.941 25.4347C105.542 25.5668 105.823 25.8097 105.823 26.1804C105.823 26.6278 105.338 26.9645 104.605 26.9645C103.897 26.9645 103.437 26.6577 103.305 26.0696L101.801 26.2145C101.992 27.4162 103.002 28.1278 104.609 28.1278C106.245 28.1278 107.4 27.2798 107.404 26.0398C107.4 25.1065 106.799 24.5355 105.563 24.267L104.447 24.0284C103.782 23.8793 103.518 23.6491 103.522 23.2699C103.518 22.8267 104.008 22.5199 104.652 22.5199C105.363 22.5199 105.738 22.9077 105.857 23.3381L107.264 23.1847ZM111.454 28.1278C112.98 28.1278 114.028 27.3821 114.301 26.2443L112.86 26.0824C112.652 26.6364 112.14 26.9261 111.475 26.9261C110.478 26.9261 109.818 26.2699 109.805 25.1491H114.365V24.6761C114.365 22.3793 112.984 21.3693 111.373 21.3693C109.498 21.3693 108.275 22.7457 108.275 24.7656C108.275 26.8196 109.481 28.1278 111.454 28.1278ZM109.809 24.1094C109.856 23.2741 110.474 22.571 111.394 22.571C112.281 22.571 112.877 23.2188 112.886 24.1094H109.809ZM125.945 22.2173C125.676 20.2784 124.185 19.1534 122.25 19.1534C119.97 19.1534 118.253 20.8153 118.253 23.6364C118.253 26.4531 119.949 28.1193 122.25 28.1193C124.325 28.1193 125.702 26.777 125.945 25.1108L124.351 25.1023C124.151 26.125 123.315 26.7003 122.271 26.7003C120.856 26.7003 119.842 25.6392 119.842 23.6364C119.842 21.6676 120.848 20.5724 122.276 20.5724C123.337 20.5724 124.168 21.1733 124.351 22.2173H125.945ZM130.059 28.1278C131.977 28.1278 133.196 26.777 133.196 24.7528C133.196 22.7244 131.977 21.3693 130.059 21.3693C128.142 21.3693 126.923 22.7244 126.923 24.7528C126.923 26.777 128.142 28.1278 130.059 28.1278ZM130.068 26.892C129.007 26.892 128.487 25.946 128.487 24.7486C128.487 23.5511 129.007 22.5923 130.068 22.5923C131.112 22.5923 131.632 23.5511 131.632 24.7486C131.632 25.946 131.112 26.892 130.068 26.892ZM134.385 28H135.928V24.152C135.928 23.321 136.554 22.733 137.402 22.733C137.662 22.733 137.986 22.7798 138.118 22.8224V21.4034C137.977 21.3778 137.734 21.3608 137.564 21.3608C136.814 21.3608 136.188 21.7869 135.949 22.5455H135.881V21.4545H134.385V28ZM141.182 28.1151C142.307 28.1151 142.814 27.446 143.057 26.9688H143.151V28H144.668V19.2727H143.121V22.5369H143.057C142.823 22.0639 142.341 21.3693 141.186 21.3693C139.674 21.3693 138.485 22.554 138.485 24.7358C138.485 26.892 139.64 28.1151 141.182 28.1151ZM141.613 26.8494C140.594 26.8494 140.057 25.9545 140.057 24.7273C140.057 23.5085 140.586 22.6349 141.613 22.6349C142.606 22.6349 143.151 23.4574 143.151 24.7273C143.151 25.9972 142.597 26.8494 141.613 26.8494ZM150.237 28L150.957 25.848H154.239L154.963 28H156.651L153.574 19.2727H151.622L148.55 28H150.237ZM151.384 24.5781L152.564 21.0625H152.632L153.813 24.5781H151.384ZM160.47 21.4545H159.179V19.8864H157.636V21.4545H156.708V22.6477H157.636V26.2869C157.628 27.5185 158.523 28.1236 159.682 28.0895C160.121 28.0767 160.423 27.9915 160.59 27.9361L160.33 26.7301C160.244 26.7514 160.07 26.7898 159.878 26.7898C159.49 26.7898 159.179 26.6534 159.179 26.0312V22.6477H160.47V21.4545ZM161.781 19.2727V26.3764C161.781 27.5185 162.373 28.0767 163.622 28.0426C164.014 28.0341 164.278 27.9702 164.457 27.9148L164.202 26.7472C164.121 26.7727 164.031 26.794 163.827 26.7983C163.447 26.8068 163.324 26.6151 163.324 26.125V19.2727H161.781ZM167.535 28.1151C168.66 28.1151 169.167 27.446 169.41 26.9688H169.504V28H171.021V21.4545H169.474V22.5369H169.41C169.176 22.0639 168.694 21.3693 167.54 21.3693C166.027 21.3693 164.838 22.554 164.838 24.7358C164.838 26.892 165.993 28.1151 167.535 28.1151ZM167.966 26.8494C166.947 26.8494 166.41 25.9545 166.41 24.7273C166.41 23.5085 166.939 22.6349 167.966 22.6349C168.959 22.6349 169.504 23.4574 169.504 24.7273C169.504 25.9972 168.95 26.8494 167.966 26.8494ZM177.718 23.1847C177.505 22.0767 176.619 21.3693 175.085 21.3693C173.508 21.3693 172.434 22.1449 172.438 23.3551C172.434 24.3097 173.022 24.9403 174.279 25.2003L175.396 25.4347C175.997 25.5668 176.278 25.8097 176.278 26.1804C176.278 26.6278 175.792 26.9645 175.059 26.9645C174.352 26.9645 173.892 26.6577 173.759 26.0696L172.255 26.2145C172.447 27.4162 173.457 28.1278 175.063 28.1278C176.7 28.1278 177.855 27.2798 177.859 26.0398C177.855 25.1065 177.254 24.5355 176.018 24.267L174.901 24.0284C174.237 23.8793 173.973 23.6491 173.977 23.2699C173.973 22.8267 174.463 22.5199 175.106 22.5199C175.818 22.5199 176.193 22.9077 176.312 23.3381L177.718 23.1847Z" fill="white"/>
</svg>
